<?xml version="1.0" encoding="UTF-8" standalone="no"?>
<!DOCTYPE svg PUBLIC "-//W3C//DTD SVG 1.1//EN" "http://www.w3.org/Graphics/SVG/1.1/DTD/svg11.dtd">
<svg version="1.1" xmlns="http://www.w3.org/2000/svg" xmlns:xlink="http://www.w3.org/1999/xlink" preserveAspectRatio="xMidYMid meet" viewBox="-1 -1 24.827 24" width="21" height="20"><defs><path d="M20.83 2.03L19.13 15L5.14 15L3.64 2L0 2L0 0L5.42 0L5.66 2.03L20.83 2.03ZM6.92 13L17.37 13L18.55 4.03L5.89 4.03L6.92 13Z" id="a5V2kXM1HX"></path><path d="M6.98 16C5.88 16 4.98 16.9 4.98 18C4.98 19.1 5.88 20 6.98 20C8.09 20 8.98 19.1 8.98 18C8.98 16.9 8.09 16 6.98 16Z" id="clvoCKZNn"></path><path d="M15.98 16C14.88 16 13.98 16.9 13.98 18C13.98 19.1 14.88 20 15.98 20C17.09 20 17.98 19.1 17.98 18C17.98 16.9 17.09 16 15.98 16Z" id="bcdXmCZZu"></path></defs><g><g><use xlink:href="#a5V2kXM1HX" opacity="1" fill="#323232" fill-opacity="1"></use><g><use xlink:href="#a5V2kXM1HX" opacity="1" fill-opacity="0" stroke="#000000" stroke-width="1" stroke-opacity="0"></use></g></g><g><use xlink:href="#clvoCKZNn" opacity="1" fill="#323232" fill-opacity="1"></use><g><use xlink:href="#clvoCKZNn" opacity="1" fill-opacity="0" stroke="#000000" stroke-width="1" stroke-opacity="0"></use></g></g><g><use xlink:href="#bcdXmCZZu" opacity="1" fill="#323232" fill-opacity="1"></use><g><use xlink:href="#bcdXmCZZu" opacity="1" fill-opacity="0" stroke="#000000" stroke-width="1" stroke-opacity="0"></use></g></g></g></svg>